<?xml version="1.0" standalone="no"?>
<!DOCTYPE svg PUBLIC "-//W3C//DTD SVG 20010904//EN"
 "http://www.w3.org/TR/2001/REC-SVG-20010904/DTD/svg10.dtd">
<svg version="1.0" xmlns="http://www.w3.org/2000/svg"
 width="512.000000pt" height="512.000000pt" viewBox="0 0 512.000000 512.000000"
 preserveAspectRatio="xMidYMid meet">

<g transform="translate(0.000000,512.000000) scale(0.100000,-0.100000)"
fill="#000000" stroke="none">
<path d="M4451 5109 c-128 -14 -275 -46 -386 -84 -55 -19 -103 -31 -107 -27
-4 4 -15 30 -26 57 l-20 50 -53 3 c-30 2 -112 -2 -184 -8 -314 -27 -599 -116
-780 -245 -75 -53 -178 -161 -206 -217 l-21 -41 -138 138 -138 138 -76 -43
c-194 -111 -450 -340 -589 -525 -37 -49 -90 -134 -118 -189 l-51 -99 -164 164
-164 164 -51 -50 c-28 -28 -94 -97 -147 -155 -282 -310 -420 -589 -453 -914
l-11 -111 -62 -65 c-188 -195 -318 -450 -372 -725 -24 -123 -24 -367 -1 -490
38 -196 114 -383 222 -545 28 -41 108 -135 179 -208 l130 -133 -332 -332 -332
-332 142 -143 143 -142 332 332 332 332 133 -130 c73 -71 167 -151 208 -179
162 -108 349 -184 545 -222 132 -25 378 -23 510 5 282 60 503 175 705 368 l65
62 119 12 c249 24 484 121 721 297 78 58 271 230 350 312 l39 41 -163 164
-164 164 99 51 c55 28 140 81 189 118 185 139 414 395 525 589 l43 76 -138
138 -138 138 42 21 c59 31 174 142 226 221 140 210 235 567 239 889 l1 113
-50 20 c-27 11 -53 22 -57 26 -4 4 8 52 27 107 69 203 102 446 92 685 -7 167
-25 310 -41 326 -30 31 -450 53 -625 33z m266 -516 c-7 -153 -34 -297 -76
-413 -17 -47 -35 -90 -39 -97 -6 -9 -26 -9 -87 3 -44 8 -153 17 -242 21 l-163
6 0 116 c0 102 -18 275 -35 344 -6 21 -1 26 42 45 151 64 319 97 517 100 l89
2 -6 -127z m-1059 10 c35 -145 52 -272 52 -396 0 -65 -3 -117 -7 -115 -5 2
-55 27 -113 56 -158 78 -271 105 -449 106 l-143 0 5 64 c11 116 58 178 187
250 92 51 325 119 416 121 31 1 31 0 52 -86z m-1232 -325 c244 -260 357 -516
371 -840 3 -76 3 -138 -1 -138 -3 0 -25 12 -49 27 -243 154 -481 236 -735 251
l-107 7 -9 51 c-19 113 40 279 153 430 56 75 272 294 291 294 4 0 43 -37 86
-82z m907 -453 c107 -37 204 -100 298 -194 132 -132 209 -282 225 -438 7 -63
6 -66 -12 -59 -10 5 -73 20 -139 34 -105 23 -144 26 -315 26 l-195 1 -1 195
c0 171 -3 210 -26 315 -14 66 -29 129 -34 139 -7 18 -4 19 62 12 38 -4 100
-18 137 -31z m-2018 -137 c121 -132 210 -258 343 -482 118 -200 226 -493 256
-694 l6 -43 -42 26 c-71 43 -233 123 -305 151 -99 37 -256 73 -351 81 -82 6
-84 7 -118 47 -79 92 -125 230 -125 376 0 126 27 226 96 365 54 108 146 245
164 245 5 0 39 -33 76 -72z m3098 7 c54 -8 139 -24 189 -36 l90 -21 -6 -50
c-14 -105 -67 -286 -110 -375 -73 -150 -155 -213 -281 -213 l-41 0 0 143 c-1
176 -28 289 -106 447 -29 58 -54 108 -56 113 -6 13 219 7 321 -8z m-2172 -565
c195 -65 351 -163 523 -329 132 -129 232 -263 310 -419 26 -50 86 -220 86
-240 0 -5 -51 10 -112 34 -220 87 -414 133 -603 143 l-120 6 -6 120 c-10 186
-58 389 -142 603 -25 61 -40 112 -35 112 6 0 50 -13 99 -30z m1434 -364 c237
-60 407 -156 603 -340 45 -43 82 -82 82 -86 0 -17 -215 -232 -284 -284 -147
-110 -265 -160 -386 -160 -108 -1 -110 0 -110 81 -1 230 -96 524 -244 756 -20
31 -36 59 -36 63 0 4 62 4 138 1 98 -4 165 -13 237 -31z m-2880 -258 c159
-168 236 -308 282 -513 21 -93 21 -306 0 -400 -30 -132 -120 -345 -146 -345
-15 0 -199 198 -239 257 -78 115 -134 248 -163 388 -21 98 -16 305 9 409 32
128 116 316 142 316 4 0 56 -51 115 -112z m720 -273 c144 -66 270 -157 416
-304 103 -102 154 -163 206 -243 68 -105 141 -253 130 -264 -3 -3 -35 4 -71
15 -36 11 -105 28 -154 37 -116 23 -374 23 -492 1 -46 -9 -86 -15 -88 -13 -2
2 5 44 14 92 36 183 16 492 -41 654 -26 73 -25 73 80 25z m1105 -342 c158 -33
426 -140 586 -235 227 -135 353 -225 484 -346 88 -81 89 -75 -35 -157 -105
-70 -233 -130 -332 -156 -93 -24 -234 -28 -313 -10 -75 18 -186 72 -236 115
-40 34 -41 36 -47 118 -16 196 -104 447 -232 656 l-27 43 39 -6 c21 -3 72 -13
113 -22z m-711 -803 c247 -32 410 -114 606 -303 128 -124 129 -112 -13 -179
-135 -64 -253 -90 -412 -91 -298 -2 -516 91 -752 321 -49 47 -88 89 -88 93 0
16 129 79 230 113 151 50 285 64 429 46z"/>
</g>
</svg>
